# xmcd
#
# Track frame offsets:
#	150
#	13663
#	26305
#	40070
#	50578
#	62393
#	75693
#	86408
#	101143
#	112020
#	123153
#	133138
#
# Disc length: 1920 seconds
#
# Revision: 0
# Processed by: cddbd v1.4PL0 Copyright (c) Steve Scherf et al.
# Submitted via: dBpowerAMP V4.0
#
DISCID=93077e0c
DTITLE=Ben E. King - Blues King
DYEAR=1900
DGENRE=Blues
TTITLE0=Stand By Me
TTITLE1=Don't Play That Song
TTITLE2=Armor
TTITLE3=Young Boy Blues
TTITLE4=Goodnight My Love
TTITLE5=Spanish Harlem
TTITLE6=How Can I Forget
TTITLE7=It's All Over
TTITLE8=I Who Have Nothing
TTITLE9=Save The Last Dance For Me
TTITLE10=I Count The Tears
TTITLE11=This Magic Moment
EXTD=
EXTT0=
EXTT1=
EXTT2=
EXTT3=
EXTT4=
EXTT5=
EXTT6=
EXTT7=
EXTT8=
EXTT9=
EXTT10=
EXTT11=
PLAYORDER=
